<svg width="1440" height="200" viewBox="0 0 1440 200" fill="none" xmlns="http://www.w3.org/2000/svg">
<path d="M480 13.1452L480.016 13.1409C520.305 1.62235 561.124 12.5827 588.654 19.9754C598.511 22.6219 606.664 24.811 612.48 25.3477C619.884 26.0417 627.342 27.2337 634.818 28.4287C663.856 33.0691 693.157 37.751 720.593 13.4782C746.628 -9.58247 755.733 -1.44293 779.844 25.6872C792.601 40.0366 806.418 45.7898 820.246 51.5473C825.046 53.5456 829.847 55.5452 834.606 57.9044C851.208 66.0847 866.235 62.2068 882.22 58.0809C885.419 57.2555 929.538 55.8368 960 55.8361C966.629 55.8361 972.611 55.9033 977.384 56.0584C985.277 56.3142 995.449 59.138 1006.6 62.2332C1033.18 69.6124 1065.32 78.5359 1085.43 57.9044C1109.54 30.7743 1157.26 13.4782 1199.44 13.4782C1220.49 13.4782 1234.66 18.3567 1247.18 22.6683C1259.75 26.9965 1270.67 30.7536 1285.21 28.4287C1292.69 27.2345 1300.15 26.0417 1307.55 25.3477C1329.58 23.3159 1351.64 21.2833 1373.7 19.2514L1373.8 19.2436C1381.16 18.5654 1384.89 19.3994 1388.62 20.2334C1396.08 21.9008 1403.54 23.5681 1440 13.1452V200H0V55.8361C6.62862 55.8361 12.6108 55.9033 17.3841 56.0584C25.277 56.3142 35.4484 59.138 46.5992 62.2332C73.1803 69.6124 105.325 78.5359 125.427 57.9044C149.538 30.7743 197.257 13.4782 239.439 13.4782C260.489 13.4782 274.659 18.3567 287.182 22.6683C299.755 26.9965 310.667 30.7536 325.215 28.4287C332.69 27.2345 340.148 26.0417 347.552 25.3477C369.612 23.313 391.705 21.2783 413.796 19.2436C421.156 18.5654 424.888 19.3994 428.619 20.2334C436.08 21.9008 443.539 23.5681 480 13.1452Z" fill="#5546FF"/>
</svg>
