<svg width="1440" height="1175" viewBox="0 0 1440 1175" fill="none" xmlns="http://www.w3.org/2000/svg">
<g opacity="0.02">
<path d="M369.005 47.9305C398.537 36.0102 420.863 39.9455 432.198 51.7185C434.567 54.0539 436.314 56.7503 437.457 59.5808C440.96 68.2609 437.094 76.6241 428.32 80.166C421.621 82.8699 416.14 82.3392 408.964 77.336C400.913 70.7107 390.314 70.8196 379.37 75.2373C365.877 80.6834 359.54 90.2636 362.892 98.5663C365.938 106.114 373.255 107.659 390.646 104.261L405.77 101.228C434.905 95.3926 454.427 102.983 462.806 123.74C473.393 149.969 457.472 176.036 426.148 188.68C400.107 199.191 377.012 196.883 363.438 182.283C361.542 180.305 360.157 178.231 359.014 175.401C355.777 167.381 359.456 159.642 368.098 156.044C375.646 152.997 381.468 153.829 388.191 158.796C396.053 165.497 404.934 165.753 414.935 161.716C427.483 156.651 432.557 148.019 429.32 140C426.426 132.829 418.694 131.342 402.738 134.491L387.708 137.485C356.402 143.649 338.432 137.187 329.787 115.769C318.743 88.4079 333.153 62.4025 369.005 47.9305Z" fill="white"/>
<path d="M228.053 126.383C258.656 103.427 291.683 105.744 311.465 132.115L357.988 194.135C365.437 204.065 364.115 213.833 354.674 220.915C345.232 227.997 335.566 226.472 328.118 216.542L283.975 157.696C273.718 144.022 260.206 141.439 246.858 151.452C233.591 161.404 232.29 175.099 242.547 188.773L286.689 247.619C294.138 257.549 292.897 267.255 283.456 274.338C273.933 281.481 264.267 279.956 256.819 270.026L210.295 208.005C190.514 181.635 197.531 149.279 228.053 126.383Z" fill="white"/>
<path d="M133.01 215.029C139.937 205.474 149.682 203.993 159.732 211.278L248.863 275.895C258.913 283.18 260.618 292.962 253.691 302.518L227.355 338.846C208.842 364.383 179.743 369.678 154.207 351.165C128.835 332.772 125.475 302.563 144.645 276.12L158.739 256.679L137.815 241.511C127.765 234.225 126.082 224.585 133.01 215.029ZM181.474 273.162L171.979 286.26C162.663 299.11 163.841 311.526 176.28 320.544C188.636 329.502 200.803 326.76 210 314.074L219.615 300.812L181.474 273.162Z" fill="white"/>
<path d="M54.5641 346.124C58.8109 335.112 67.9457 331.219 79.5272 335.686L180.059 374.457C191.641 378.923 195.796 387.941 191.549 398.953L167.35 461.703C163.725 471.101 156.256 475.2 147.332 471.758C138.409 468.317 135.699 460.074 139.25 450.866L156.75 405.489L129.505 394.982L112.81 438.27C109.552 446.719 102.645 450.489 94.5763 447.377C86.5071 444.266 83.8474 437.024 87.179 428.385L103.874 385.097L75.9639 374.333L58.4639 419.71C54.9126 428.918 47.37 433.207 38.4465 429.765C29.5231 426.324 26.7399 418.271 30.3644 408.873L54.5641 346.124Z" fill="white"/>
<path d="M10.1522 477.295C11.7454 465.6 19.7363 459.706 31.9348 461.368L141.117 476.242C153.417 477.918 159.54 485.735 157.947 497.429L151.986 541.183C147.042 577.476 126.432 594.589 96.3893 590.497C79.2509 588.162 64.9983 578.211 59.5569 562.374L26.7808 576.085C20.998 578.583 17.8774 578.876 13.5424 578.286C3.76343 576.954 -2.24988 568.33 -0.780273 557.543C0.442017 548.571 4.08923 545.165 16.2321 540.453L57.9847 524.167L60.869 502.995L26.8944 498.367C14.6958 496.705 8.55896 488.989 10.1522 477.295ZM86.1735 506.443L83.2206 528.118C81.3666 541.728 88.2321 550.878 100.834 552.595C113.234 554.284 122.769 546.855 124.568 533.648L127.507 512.074L86.1735 506.443Z" fill="white"/>
<path d="M6.46667 698.539C3.45752 687.126 8.58032 678.62 20.5831 675.456L124.771 647.984C136.774 644.819 145.425 649.693 148.434 661.106L158.862 700.656C170.172 743.551 151.922 775.301 106.666 787.233C61.3112 799.192 28.1792 780.886 16.8949 738.089L6.46667 698.539ZM40.3353 708.865L44.7711 725.688C50.9711 749.202 68.5571 758.033 96.8916 750.562C123.553 743.532 134.514 726.437 128.495 703.612L124.06 686.789L40.3353 708.865Z" fill="white"/>
<path d="M66.9048 861.031C60.4745 851.135 62.592 841.508 73.001 834.745L167.278 773.49C177.687 766.728 187.344 768.704 193.774 778.601C200.204 788.498 198.031 798.04 187.622 804.803L93.345 866.057C82.9362 872.82 73.3351 870.929 66.9048 861.031Z" fill="white"/>
<path d="M127.786 936.352C118.076 930.786 115.715 921.81 121.635 911.482L178.858 811.644C184.575 801.669 193.311 799.522 203.375 805.29C209.554 808.832 212.45 814.01 213.662 823.148L223.987 918.077L224.693 918.482L259.048 858.544C264.968 848.216 273.994 845.767 283.616 851.282C293.326 856.847 295.687 865.823 289.767 876.151L232.443 976.166C226.827 985.964 218.267 988.212 208.469 982.596C201.937 978.852 199.078 973.813 198.093 964.687L187.82 868.85L187.113 868.445L152.354 929.089C146.435 939.417 137.408 941.867 127.786 936.352Z" fill="white"/>
<path d="M382.668 981.242C340.4 995.362 304.641 976.627 289.812 932.235C274.983 887.844 292.366 851.25 334.538 837.162C376.71 823.074 412.501 841.905 427.33 886.297C442.159 930.689 424.84 967.154 382.668 981.242ZM373.061 952.484C392.845 945.875 400.167 924.764 391.334 898.322C382.469 871.783 363.928 859.311 344.145 865.92C324.361 872.529 317.039 893.64 325.904 920.179C334.737 946.621 353.182 959.125 373.061 952.484Z" fill="white"/>
<path d="M558.813 790.866C547.238 820.534 529.063 834.085 512.721 834.261C509.396 834.384 506.236 833.806 503.393 832.697C494.672 829.294 491.236 820.745 494.676 811.93C497.302 805.201 501.447 801.575 510.009 799.783C520.352 798.467 527.542 790.678 531.832 779.683C537.12 766.129 534.494 754.947 526.152 751.692C518.569 748.733 512.427 752.999 502.975 767.987L494.811 781.075C479.078 806.281 460.165 815.284 439.312 807.148C412.962 796.866 404.908 767.403 417.187 735.934C427.394 709.773 444.912 694.546 464.847 694.679C467.586 694.656 470.046 695.07 472.89 696.179C480.947 699.323 484.057 707.308 480.749 716.065C477.79 723.648 473.192 727.315 464.967 728.802C454.698 729.928 448.422 736.216 444.501 746.264C439.582 758.87 442.385 768.483 450.442 771.626C457.646 774.437 464.031 769.829 472.681 756.057L480.808 743.065C497.791 716.052 514.817 707.405 536.334 715.801C563.822 726.526 572.867 754.847 558.813 790.866Z" fill="white"/>
<path d="M600.625 640.093C592.791 677.539 566.453 697.6 534.186 690.85L458.299 674.975C446.149 672.433 440.694 664.223 443.11 652.671C445.527 641.118 453.794 635.883 465.945 638.425L537.948 653.488C554.679 656.988 566.534 650.009 569.951 633.676C573.347 617.443 565.284 606.297 548.552 602.797L476.549 587.734C464.399 585.192 458.923 577.082 461.34 565.529C463.777 553.877 472.045 548.642 484.195 551.184L560.083 567.06C592.35 573.81 608.437 602.746 600.625 640.093Z" fill="white"/>
<path d="M621.438 537.615C618.911 549.143 610.571 554.398 598.446 551.74L490.912 528.162C478.787 525.503 473.311 517.22 475.839 505.691L485.449 461.862C492.204 431.053 516.756 414.562 547.566 421.317C578.176 428.029 593.337 454.373 586.342 486.276L581.2 509.73L606.443 515.265C618.568 517.924 623.966 526.086 621.438 537.615ZM553.769 503.716L557.234 487.914C560.633 472.41 554.588 461.501 539.581 458.211C524.673 454.942 514.618 462.321 511.262 477.626L507.754 493.627L553.769 503.716Z" fill="white"/>
<path d="M648.81 416.898C644.796 427.997 635.745 432.081 624.072 427.859L522.747 391.211C511.074 386.99 506.729 378.061 510.744 366.962L533.618 303.717C537.044 294.245 544.425 289.99 553.419 293.243C562.413 296.496 565.296 304.68 561.939 313.961L545.398 359.696L572.858 369.628L588.638 325.998C591.718 317.482 598.544 313.567 606.677 316.509C614.809 319.45 617.621 326.634 614.472 335.341L598.692 378.971L626.821 389.145L643.363 343.41C646.72 334.129 654.17 329.683 663.164 332.936C672.158 336.189 675.11 344.181 671.684 353.654L648.81 416.898Z" fill="white"/>
<path d="M689.65 319.181C683.336 329.153 673.617 331.188 663.216 324.602L570.119 265.653C559.632 259.012 557.315 249.357 563.629 239.385L587.252 202.078C606.847 171.131 632.708 164.143 658.325 180.364C672.939 189.617 681.759 204.595 680.119 221.26L715.628 222.428C721.926 222.562 724.886 223.593 728.582 225.934C736.92 231.214 738.801 241.557 732.977 250.755C728.133 258.406 723.399 259.985 710.397 259.218L665.653 256.658L654.223 274.71L683.192 293.054C693.594 299.64 695.964 309.209 689.65 319.181ZM632.646 261.048L644.349 242.566C651.697 230.961 649.261 219.784 638.515 212.98C627.942 206.285 616.18 209.074 609.05 220.335L597.402 238.731L632.646 261.048Z" fill="white"/>
<path d="M779.983 199.525C769.4 204.75 760.043 201.426 754.548 190.296L706.85 93.6792C701.355 82.5487 704.406 73.0996 714.99 67.8749L751.666 49.7687C791.443 30.131 826.194 41.6828 846.913 83.6504C867.677 125.709 856.345 161.826 816.659 181.419L779.983 199.525ZM783.347 164.278L798.948 156.576C820.752 145.811 825.899 126.817 812.928 100.542C800.722 75.8173 781.784 68.4864 760.618 78.9358L745.017 86.6377L783.347 164.278Z" fill="white"/>
<path d="M898.075 157.858C886.411 159.661 878.501 153.78 876.604 141.513L859.427 30.4032C857.531 18.1359 863.296 10.1408 874.96 8.33764C886.624 6.53445 894.433 12.431 896.33 24.6983L913.507 135.808C915.403 148.075 909.739 156.054 898.075 157.858Z" fill="white"/>
<path d="M940.467 150.625C929.333 149.486 923.529 142.244 924.741 130.402L936.456 15.9248C937.627 4.48723 944.737 -1.02407 956.275 0.156811C963.36 0.881913 968.111 4.43636 972.932 12.2937L1020.94 94.8356L1021.75 94.9184L1028.78 26.1919C1030 14.3495 1037.25 8.44369 1048.28 9.57278C1059.42 10.7122 1065.22 17.9543 1064.01 29.7967L1052.27 144.476C1051.12 155.711 1044.21 161.243 1032.98 160.093C1025.49 159.327 1020.83 155.884 1016.22 147.946L967.89 64.5529L967.081 64.47L959.964 134.006C958.752 145.849 951.5 151.755 940.467 150.625Z" fill="white"/>
<path d="M1102.62 192.186C1063.98 169.979 1054.22 130.808 1077.55 90.229C1100.87 49.6504 1139.77 38.326 1178.32 60.4819C1216.87 82.6378 1226.57 121.898 1203.25 162.476C1179.93 203.055 1141.17 214.342 1102.62 192.186ZM1117.73 165.898C1135.81 176.292 1156.46 167.736 1170.35 143.565C1184.29 119.306 1181.29 97.1633 1163.21 86.7698C1145.12 76.3763 1124.48 84.9318 1110.54 109.191C1096.65 133.361 1099.56 155.454 1117.73 165.898Z" fill="white"/>
<path d="M1218.05 306.328C1201.29 279.246 1201.38 256.576 1211.06 243.408C1212.96 240.677 1215.32 238.498 1217.92 236.892C1225.88 231.967 1234.78 234.358 1239.76 242.405C1243.56 248.548 1243.96 254.039 1240.25 261.961C1235.09 271.018 1236.99 281.445 1243.2 291.482C1250.86 303.855 1261.37 308.475 1268.99 303.764C1275.91 299.481 1276.19 292.008 1269.89 275.446L1264.34 261.055C1253.64 233.332 1257.81 212.805 1276.85 201.027C1300.9 186.144 1329.29 197.413 1347.07 226.139C1361.84 250.019 1363.48 273.171 1351.4 289.025C1349.77 291.228 1347.96 292.946 1345.37 294.552C1338.01 299.103 1329.76 296.79 1324.75 288.883C1320.47 281.961 1320.3 276.083 1324.05 268.615C1329.32 259.73 1328.07 250.934 1322.39 241.763C1315.27 230.256 1305.91 226.719 1298.55 231.27C1291.98 235.338 1291.82 243.211 1297.63 258.401L1303.13 272.705C1314.52 302.513 1311.2 321.318 1291.56 333.471C1266.47 348.996 1238.39 339.206 1218.05 306.328Z" fill="white"/>
<path d="M1266.32 414.851C1255.38 378.192 1268.99 348.01 1300.58 338.583L1374.87 316.413C1386.77 312.863 1395.47 317.486 1398.85 328.795C1402.22 340.105 1397.44 348.645 1385.55 352.194L1315.06 373.23C1298.68 378.118 1291.58 389.9 1296.35 405.89C1301.09 421.782 1313.49 427.744 1329.87 422.856L1400.36 401.82C1412.25 398.271 1420.93 402.796 1424.31 414.105C1427.71 425.512 1422.93 434.052 1411.04 437.602L1336.74 459.773C1305.16 469.199 1277.23 451.412 1266.32 414.851Z" fill="white"/>
<path d="M1286.62 501.02C1285.67 489.256 1292.1 481.792 1304.48 480.786L1414.2 471.87C1426.58 470.865 1434.24 477.184 1435.19 488.948L1438.83 533.67C1441.38 565.108 1422.73 588.061 1391.29 590.615C1360.05 593.153 1337.85 572.398 1335.2 539.845L1333.26 515.911L1307.5 518.005C1295.13 519.01 1287.58 512.784 1286.62 501.02ZM1361.25 513.637L1362.56 529.761C1363.85 545.582 1372.82 554.244 1388.13 553C1403.34 551.764 1410.8 541.766 1409.53 526.149L1408.2 509.821L1361.25 513.637Z" fill="white"/>
<path d="M1294.51 626.632C1295.56 614.877 1303.28 608.623 1315.64 609.733L1422.96 619.37C1435.32 620.48 1441.8 628.008 1440.74 639.764L1434.72 706.748C1433.82 716.781 1427.77 722.775 1418.24 721.919C1408.72 721.064 1403.85 713.884 1404.73 704.054L1409.08 655.615L1379.99 653.003L1375.84 699.213C1375.03 708.232 1369.43 713.756 1360.82 712.983C1352.2 712.209 1347.66 705.978 1348.48 696.756L1352.63 650.546L1322.84 647.87L1318.49 696.31C1317.61 706.14 1311.53 712.337 1302.01 711.481C1292.48 710.626 1287.59 703.649 1288.49 693.616L1294.51 626.632Z" fill="white"/>
<path d="M1279.36 733.468C1282.73 722.156 1291.53 717.557 1303.33 721.07L1408.94 752.512C1420.83 756.053 1425.69 764.717 1422.32 776.029L1409.72 818.351C1399.27 853.456 1376.28 867.207 1347.22 858.556C1330.64 853.62 1318.08 841.601 1315.13 825.118L1280.64 833.64C1274.54 835.221 1271.42 835.033 1267.22 833.785C1257.76 830.969 1253.14 821.525 1256.25 811.091C1258.83 802.412 1262.96 799.607 1275.68 796.812L1319.44 787.121L1325.53 766.642L1292.67 756.859C1280.87 753.346 1275.99 744.78 1279.36 733.468ZM1350.01 773.929L1343.77 794.895C1339.85 808.06 1345.23 818.155 1357.42 821.784C1369.42 825.355 1379.98 819.475 1383.78 806.701L1389.99 785.832L1350.01 773.929Z" fill="white"/>
<path d="M1223.46 884.259C1230.9 875.094 1240.79 874.208 1250.43 882.028L1334.1 949.909C1343.74 957.73 1344.92 967.59 1337.48 976.755L1311.71 1008.52C1283.77 1042.97 1247.37 1046.98 1211.02 1017.5C1174.59 987.945 1169.81 950.395 1197.69 916.024L1223.46 884.259ZM1235.12 917.693L1224.16 931.205C1208.84 950.089 1212.09 969.498 1234.85 987.958C1256.26 1005.33 1276.53 1004.09 1291.4 985.753L1302.36 972.242L1235.12 917.693Z" fill="white"/>
<path d="M1132.08 976.306C1141.65 969.399 1151.37 971.043 1158.63 981.108L1224.43 1072.27C1231.69 1082.34 1230.19 1092.08 1220.62 1098.99C1211.05 1105.89 1201.41 1104.19 1194.15 1094.13L1128.35 1002.96C1121.09 992.896 1122.51 983.213 1132.08 976.306Z" fill="white"/>
<path d="M1101.92 999.825C1112.46 996.042 1120.82 1000.07 1124.84 1011.27L1163.74 1119.57C1167.63 1130.39 1163.6 1138.43 1152.68 1142.35C1145.98 1144.76 1140.16 1143.61 1132.41 1138.61L1053.45 1084.91L1052.69 1085.18L1076.04 1150.2C1080.06 1161.41 1076.07 1169.87 1065.64 1173.62C1055.1 1177.4 1046.74 1173.38 1042.72 1162.17L1003.75 1053.68C999.932 1043.05 1003.77 1035.08 1014.4 1031.26C1021.49 1028.71 1027.18 1029.81 1034.76 1034.97L1114.38 1089.3L1115.15 1089.02L1091.52 1023.24C1087.5 1012.03 1091.48 1003.57 1101.92 999.825Z" fill="white"/>
</g>
</svg>
