<svg width="1440" height="1442" viewBox="0 0 1440 1442" fill="none" xmlns="http://www.w3.org/2000/svg">
<path opacity="0.1" fill-rule="evenodd" clip-rule="evenodd" d="M990.375 0H996.008V95.7578H1341.26L1343.25 93.7663L1347.23 97.7494L1345.24 99.7406V444.992H1441V450.625H1345.24V718.184H1441V723.816H1345.24V991.375H1441V997.008H1345.24V1342.26L1347.23 1344.25L1343.25 1348.23L1341.26 1346.24H996.008V1442H990.375V1346.24H722.816V1442H717.184V1346.24H449.625V1442H443.992V1346.24H98.7406L96.7492 1348.23L92.7662 1344.25L94.7578 1342.26V997.008H-1V991.375H94.7578V723.816H-1V718.184H94.7578V450.625H-1V444.992H94.7578V99.741L92.7662 97.7494L96.7492 93.7663L98.7406 95.7578H443.992V0H449.625V95.7578H717.184V0H722.816V95.7578H990.375V0ZM100.397 723.816C100.824 819.712 123.035 910.463 162.337 991.375H440.792C373.642 922.046 332.084 827.783 331.346 723.816H100.397ZM331.346 718.184H100.397C100.824 622.288 123.035 531.537 162.337 450.625H440.792C373.642 519.954 332.084 614.217 331.346 718.184ZM336.979 723.816C337.713 825.823 378.322 918.348 443.992 986.58V723.816H336.979ZM443.992 718.184H336.979C337.713 616.177 378.322 523.652 443.992 455.42V718.184ZM449.625 723.816V987.392L713.2 723.816H449.625ZM713.2 718.184H449.625V454.608L713.2 718.184ZM726.799 723.816L990.375 987.392V723.816H726.799ZM990.375 718.184H726.799L990.375 454.608V718.184ZM996.008 723.816V986.58C1061.68 918.348 1102.29 825.823 1103.02 723.816H996.008ZM1103.02 718.184H996.008V455.42C1061.68 523.652 1102.29 616.177 1103.02 718.184ZM1108.65 723.816C1107.92 827.783 1066.36 922.046 999.208 991.375H1277.66C1316.97 910.463 1339.18 819.712 1339.6 723.816H1108.65ZM1339.6 718.184H1108.65C1107.92 614.217 1066.36 519.954 999.208 450.625H1277.66C1316.97 531.537 1339.18 622.288 1339.6 718.184ZM990.375 1278.66C909.463 1317.97 818.712 1340.18 722.816 1340.6V1109.65C826.783 1108.92 921.046 1067.36 990.375 1000.21V1278.66ZM985.58 997.008C917.348 1062.68 824.823 1103.29 722.816 1104.02V997.008H985.58ZM717.184 1104.02V997.008H454.42C522.652 1062.68 615.177 1103.29 717.184 1104.02ZM986.392 991.375H722.816V727.799L986.392 991.375ZM717.184 991.375V727.799L453.608 991.375H717.184ZM986.392 450.625L722.816 714.201V450.625H986.392ZM717.184 714.201V450.625H453.608L717.184 714.201ZM985.58 444.992H722.816V337.979C824.823 338.713 917.348 379.322 985.58 444.992ZM717.184 444.992V337.979C615.177 338.713 522.652 379.322 454.42 444.992H717.184ZM990.375 441.792C921.046 374.642 826.783 333.084 722.816 332.346V101.397C818.712 101.824 909.463 124.035 990.375 163.337V441.792ZM717.184 332.346V101.397C621.288 101.824 530.537 124.035 449.625 163.337V441.792C518.954 374.642 613.217 333.084 717.184 332.346ZM717.184 1340.6V1109.65C613.217 1108.92 518.954 1067.36 449.625 1000.21V1278.66C530.537 1317.97 621.288 1340.18 717.184 1340.6ZM100.391 450.625V636.712C109.261 570.882 128.377 508.3 156.08 450.625H100.391ZM158.82 444.992H100.391V105.374L275.9 280.883C228.556 328.652 188.866 384.019 158.82 444.992ZM440.009 444.992H165.108C194.729 385.557 233.618 331.551 279.883 284.866L440.009 444.992ZM1274.89 444.992H999.991L1160.12 284.866C1206.38 331.551 1245.27 385.557 1274.89 444.992ZM1283.92 450.625C1311.62 508.3 1330.74 570.882 1339.61 636.712V450.625H1283.92ZM1339.61 444.992H1281.18C1251.13 384.019 1211.44 328.652 1164.1 280.883L1339.61 105.373V444.992ZM1339.61 805.288V991.375H1283.92C1311.62 933.7 1330.74 871.118 1339.61 805.288ZM1274.89 997.008H999.991L1160.12 1157.13C1206.38 1110.45 1245.27 1056.44 1274.89 997.008ZM440.009 997.008H165.108C194.729 1056.44 233.618 1110.45 279.883 1157.13L440.009 997.008ZM100.391 805.288C109.261 871.118 128.377 933.7 156.08 991.375H100.391V805.288ZM158.82 997.008H100.391V1336.63L275.9 1161.12C228.556 1113.35 188.866 1057.98 158.82 997.008ZM1339.61 997.008H1281.18C1251.13 1057.98 1211.44 1113.35 1164.1 1161.12L1339.61 1336.63V997.008ZM443.992 101.391H104.373L279.883 276.9C327.652 229.557 383.019 189.866 443.992 159.82V101.391ZM449.625 157.08V101.391H635.712C569.882 110.261 507.3 129.377 449.625 157.08ZM443.992 166.108C384.557 195.729 330.551 234.618 283.866 280.883L443.992 441.009V166.108ZM443.992 1000.99V1275.89C384.557 1246.27 330.551 1207.38 283.866 1161.12L443.992 1000.99ZM443.992 1282.18C383.019 1252.13 327.652 1212.44 279.883 1165.1L104.373 1340.61H443.992V1282.18ZM449.625 1340.61V1284.92C507.3 1312.62 569.882 1331.74 635.712 1340.61H449.625ZM804.288 101.391H990.375V157.08C932.7 129.377 870.118 110.261 804.288 101.391ZM996.008 101.391V159.82C1056.98 189.866 1112.35 229.556 1160.12 276.9L1335.63 101.391H996.008ZM996.008 166.108V441.009L1156.13 280.883C1109.45 234.618 1055.44 195.729 996.008 166.108ZM996.008 1000.99V1275.89C1055.44 1246.27 1109.45 1207.38 1156.13 1161.12L996.008 1000.99ZM804.288 1340.61C870.118 1331.74 932.7 1312.62 990.375 1284.92V1340.61H804.288ZM996.008 1282.18V1340.61H1335.63L1160.12 1165.1C1112.35 1212.44 1056.98 1252.13 996.008 1282.18Z" fill="#E0E0E0" fill-opacity="0.5"/>
</svg>
