<svg width="1440" height="200" viewBox="0 0 1440 200" fill="none" xmlns="http://www.w3.org/2000/svg">
<path d="M960 13.1452L959.984 13.1409C919.695 1.62235 878.876 12.5827 851.346 19.9754C841.489 22.6219 833.336 24.811 827.52 25.3477C820.116 26.0417 812.658 27.2337 805.182 28.4287C776.144 33.0691 746.843 37.751 719.407 13.4782C693.372 -9.58247 684.267 -1.44293 660.156 25.6872C647.399 40.0366 633.582 45.7898 619.754 51.5473C614.954 53.5456 610.153 55.5452 605.394 57.9044C588.792 66.0847 573.765 62.2068 557.78 58.0809C554.581 57.2555 510.462 55.8368 480 55.8361C473.371 55.8361 467.389 55.9033 462.616 56.0584C454.723 56.3142 444.551 59.138 433.401 62.2332C406.82 69.6124 374.675 78.5359 354.573 57.9044C330.463 30.7743 282.743 13.4782 240.561 13.4782C219.511 13.4782 205.341 18.3567 192.818 22.6683C180.246 26.9965 169.333 30.7536 154.785 28.4287C147.31 27.2345 139.852 26.0417 132.448 25.3477C110.418 23.3159 88.3568 21.2833 66.2954 19.2514L66.2036 19.2436C58.8439 18.5654 55.1122 19.3994 51.3809 20.2334C43.92 21.9008 36.4609 23.5681 0.00012207 13.1452V200H1440V55.8361C1433.37 55.8361 1427.39 55.9033 1422.62 56.0584C1414.72 56.3142 1404.55 59.138 1393.4 62.2332C1366.82 69.6124 1334.68 78.5359 1314.57 57.9044C1290.46 30.7743 1242.74 13.4782 1200.56 13.4782C1179.51 13.4782 1165.34 18.3567 1152.82 22.6683C1140.25 26.9965 1129.33 30.7536 1114.79 28.4287C1107.31 27.2345 1099.85 26.0417 1092.45 25.3477C1070.39 23.313 1048.3 21.2783 1026.2 19.2436C1018.84 18.5654 1015.11 19.3994 1011.38 20.2334C1003.92 21.9008 996.461 23.5681 960 13.1452Z" fill="#010101"/>
</svg>
