<svg width="101" height="89" viewBox="0 0 101 89" fill="none" xmlns="http://www.w3.org/2000/svg">
<path d="M30.1163 65.8158C58.3709 36.0552 104.464 77.4531 58.4595 50.497C12.455 23.541 38.9393 18.9438 67.9853 28.0013C92.9853 35.7972 24.5095 63.8808 23.5027 35.7972" stroke="#34A937" stroke-width="45" stroke-linecap="round"/>
<path d="M73.3408 39.7659L29.8416 39.5417C29.4266 39.5396 29.0898 39.8728 29.0877 40.2878L28.9981 57.6626C28.9723 62.6625 31.4594 65.1754 36.4593 65.2011L66.4589 65.3558C71.4589 65.3816 73.9717 62.8945 73.9975 57.8946L74.0871 40.5198C74.0892 40.1048 73.7558 39.7681 73.3408 39.7659ZM59.9925 50.0722L56.8271 53.061C56.5959 53.2798 56.4894 53.5968 56.5428 53.9071L57.2415 58.0257C57.3822 58.8614 56.489 59.4918 55.726 59.0954L51.9562 57.1309C51.6744 56.9844 51.3343 56.9827 51.051 57.1262L47.2636 59.0493C46.4966 59.4403 45.6049 58.7957 45.7567 57.9615L46.4978 53.8553C46.5544 53.5456 46.4512 53.2275 46.2223 53.0063L43.0878 49.9851C42.5107 49.4296 42.8358 48.4663 43.6364 48.3579L47.9968 47.7604C48.3146 47.717 48.5905 47.5234 48.7319 47.2416L50.6387 43.5065C51.0252 42.7484 52.1303 42.7541 52.5088 43.5161L54.377 47.2707C54.5181 47.554 54.792 47.7504 55.1067 47.797L59.4611 48.4395C60.2605 48.5561 60.5729 49.5227 59.9925 50.0722ZM29.9309 34.8371L32.6133 25.6308C33.5549 22.4106 34.1914 20.1889 39.8413 20.218L49.066 20.2655C49.481 20.2677 49.8144 20.6044 49.8123 21.0194L49.7395 35.1442C49.7373 35.5592 49.4005 35.8925 48.9855 35.8903L30.6459 35.7958C30.1484 35.7932 29.7909 35.3139 29.9309 34.8371ZM53.4894 35.1636L53.5622 21.0387C53.5644 20.6237 53.9012 20.2905 54.3162 20.2926L63.5409 20.3402C69.1909 20.3693 69.8044 22.5975 70.7127 25.8272L73.3001 35.0607C73.4351 35.5414 73.0727 36.0145 72.5752 36.0119L54.2356 35.9174C53.8207 35.9153 53.4873 35.5786 53.4894 35.1636Z" fill="#8FFF00"/>
</svg>
