<svg width="272" height="270" viewBox="0 0 272 270" fill="none" xmlns="http://www.w3.org/2000/svg">
<path d="M62.2324 81.1861C207.537 -17.8675 -72.5439 347.605 166.55 111.928C306.732 -26.252 43.5867 299.786 204.122 180.239" stroke="#FFE500" stroke-width="122.963" stroke-linecap="round"/>
<path d="M123.292 69.8013L77.75 124.451H118.738L114.183 160.885L159.725 106.235H118.738L123.292 69.8013Z" fill="white" stroke="white" stroke-width="13.6625" stroke-linecap="round" stroke-linejoin="round"/>
<path d="M92.9184 219.059C98.6864 221.252 104.056 220.712 107.52 217.617C108.073 217.108 108.483 216.545 108.69 216.002C109.341 214.289 108.475 212.783 106.876 212.175C105.877 211.795 105.101 211.86 104.044 212.406C100.652 214.45 98.1439 214.771 94.9458 213.555C90.32 211.796 88.6166 207.422 90.5383 202.368L90.6251 202.14L108.472 208.925C110.585 209.729 112.262 208.928 113.065 206.815C116.192 198.592 112.775 190.56 104.494 187.411C95.7562 184.089 87.8213 188.197 84.1517 197.848C80.4169 207.671 83.6668 215.541 92.9184 219.059ZM92.4628 197.479C94.3986 193.247 98.4294 191.413 102.427 192.933C106.425 194.453 108.126 198.401 106.597 202.853L92.4628 197.479Z" fill="black"/>
<path d="M117.51 226.203C118.788 226.307 119.648 225.917 120.711 224.533L128.489 214.837L128.641 214.85L134.768 225.801C135.46 227.083 136.235 227.729 137.636 227.843C139.676 228.009 141.368 226.798 141.532 224.789C141.596 223.997 141.382 223.244 140.898 222.408L133.748 210.484L142.669 200.3C143.411 199.472 143.747 198.733 143.819 197.85C143.973 195.962 142.59 194.501 140.459 194.327C139.119 194.218 138.247 194.76 137.151 196.172L129.771 205.502L129.619 205.489L123.698 195.015C122.848 193.413 122.129 192.833 120.637 192.712C118.567 192.543 116.867 193.845 116.715 195.703C116.644 196.585 116.856 197.369 117.344 198.144L124.505 209.946L115.411 220.361C114.697 221.223 114.336 221.898 114.264 222.781C114.115 224.608 115.47 226.036 117.51 226.203Z" fill="black"/>
<path d="M165.43 234.719C167.505 233.903 168.458 231.985 167.519 229.597L162.799 217.6L162.941 217.545C165.921 220.279 170.16 221.04 174.538 219.318C182.1 216.343 184.595 208.5 180.815 198.892C177.023 189.255 169.825 185.226 162.178 188.234C157.8 189.957 155.261 193.516 154.931 197.684L154.788 197.74L153.939 195.579C153.021 193.248 151.057 192.511 149.039 193.305C147.02 194.099 146.113 195.966 147.031 198.297L160.44 232.382C161.379 234.77 163.355 235.535 165.43 234.719ZM169.982 214.413C165.576 216.147 161.138 213.461 158.783 207.559C156.508 201.692 157.903 196.645 162.31 194.912C166.887 193.111 171.228 195.802 173.566 201.744C175.914 207.714 174.559 212.613 169.982 214.413Z" fill="black"/>
<path d="M197.408 203.277C198.959 201.591 198.892 199.453 197.048 197.758L185.581 187.211C182.68 184.543 181.796 181.488 184.71 178.275C185.701 177.153 186.218 176.093 186.243 175.119C186.31 174.143 185.906 173.274 185.029 172.467C184.107 171.62 183.184 171.269 182.282 171.393C181.506 171.469 180.661 171.937 179.855 172.813C177.663 175.197 177.559 178.92 179.747 182.136L179.644 182.249L177.823 180.574C176.069 178.961 173.976 179.07 172.549 180.621C171.081 182.218 171.168 184.289 172.921 185.902L191.899 203.356C193.742 205.052 195.857 204.964 197.408 203.277Z" fill="black"/>
<path d="M218.646 168.286C220.682 162.46 219.996 157.108 216.809 153.728C216.285 153.189 215.711 152.795 215.163 152.603C213.433 151.998 211.951 152.904 211.387 154.519C211.034 155.529 211.119 156.303 211.694 157.345C213.829 160.68 214.218 163.178 213.089 166.408C211.456 171.08 207.13 172.901 202.026 171.117L201.795 171.036L208.095 153.013C208.841 150.879 207.995 149.224 205.861 148.478C197.556 145.575 189.619 149.209 186.696 157.572C183.612 166.396 187.933 174.217 197.68 177.624C207.601 181.091 215.38 177.629 218.646 168.286ZM197.086 169.326C192.803 167.505 190.861 163.525 192.272 159.488C193.683 155.451 197.584 153.643 202.075 155.051L197.086 169.326Z" fill="black"/>
<path d="M223.054 129.814C222.567 121.581 218.183 116.27 211.992 116.636C207.204 116.919 204.895 119.779 203.743 126.702L202.92 131.923C202.356 135.322 201.158 136.801 199.267 136.913C196.949 137.05 195.198 134.858 195.001 131.534C194.812 128.332 196.105 126.389 198.243 124.763C199.207 124.002 199.539 122.881 199.474 121.783C199.361 119.862 198.173 118.922 196.587 119.016C196.221 119.038 195.859 119.12 195.468 119.235C191.807 120.461 189.042 125.46 189.41 131.681C189.882 139.671 194.123 144.623 200.13 144.267C204.826 143.99 207.753 140.695 208.813 134.298L209.692 128.982C210.258 125.613 211.254 124.33 213.205 124.215C215.645 124.071 217.278 126.331 217.487 129.868C217.702 133.497 216.719 135.514 214.35 137.367C213.127 138.419 212.611 139.521 212.685 140.771C212.793 142.601 214.031 143.874 215.861 143.766C216.318 143.739 216.801 143.618 217.337 143.373C221.118 141.588 223.457 136.645 223.054 129.814Z" fill="black"/>
<path d="M213.532 95.9857C210.031 88.5175 203.992 85.208 198.377 87.8403C194.034 89.8762 192.948 93.3882 194.442 100.245L195.61 105.4C196.345 108.767 195.78 110.584 194.065 111.387C191.962 112.373 189.524 110.986 188.11 107.971C186.749 105.066 187.23 102.783 188.614 100.481C189.229 99.4167 189.121 98.2524 188.655 97.2566C187.838 95.514 186.386 95.081 184.948 95.7553C184.616 95.9109 184.31 96.1218 183.989 96.3734C181.043 98.8682 180.326 104.535 182.971 110.178C186.368 117.425 192.141 120.454 197.59 117.9C201.85 115.903 203.348 111.759 201.964 105.424L200.812 100.16C200.091 96.8213 200.54 95.2611 202.31 94.4312C204.523 93.3938 206.877 94.8882 208.381 98.0968C209.924 101.388 209.758 103.625 208.244 106.225C207.497 107.654 207.425 108.869 207.957 110.003C208.735 111.663 210.357 112.387 212.016 111.609C212.431 111.414 212.835 111.124 213.242 110.697C216.094 107.639 216.436 102.182 213.532 95.9857Z" fill="black"/>
</svg>
