<svg width="1440" height="200" viewBox="0 0 1440 200" fill="none" xmlns="http://www.w3.org/2000/svg">
<path d="M480 186.855L480.016 186.859C520.305 198.378 561.124 187.417 588.654 180.025C598.511 177.378 606.664 175.189 612.48 174.652C619.884 173.958 627.342 172.766 634.818 171.571C663.856 166.931 693.157 162.249 720.593 186.522C746.628 209.582 755.733 201.443 779.844 174.313C792.601 159.963 806.418 154.21 820.246 148.453C825.046 146.454 829.847 144.455 834.606 142.096C851.208 133.915 866.235 137.793 882.22 141.919C885.419 142.745 929.538 144.163 960 144.164C966.629 144.164 972.611 144.097 977.384 143.942C985.277 143.686 995.449 140.862 1006.6 137.767C1033.18 130.388 1065.32 121.464 1085.43 142.096C1109.54 169.226 1157.26 186.522 1199.44 186.522C1220.49 186.522 1234.66 181.643 1247.18 177.332C1259.75 173.004 1270.67 169.246 1285.21 171.571C1292.69 172.766 1300.15 173.958 1307.55 174.652C1329.58 176.684 1351.64 178.717 1373.7 180.749L1373.8 180.756C1381.16 181.435 1384.89 180.601 1388.62 179.767C1396.08 178.099 1403.54 176.432 1440 186.855V0H0V144.164C6.62862 144.164 12.6108 144.097 17.3841 143.942C25.277 143.686 35.4484 140.862 46.5992 137.767C73.1803 130.388 105.325 121.464 125.427 142.096C149.538 169.226 197.257 186.522 239.439 186.522C260.489 186.522 274.659 181.643 287.182 177.332C299.755 173.004 310.667 169.246 325.215 171.571C332.69 172.766 340.148 173.958 347.552 174.652C369.612 176.687 391.705 178.722 413.796 180.756C421.156 181.435 424.888 180.601 428.619 179.767C436.08 178.099 443.539 176.432 480 186.855Z" fill="#5546FF"/>
</svg>
