<svg width="36" height="36" viewBox="0 0 36 36" fill="none" xmlns="http://www.w3.org/2000/svg">
<g clip-path="url(#clip0_506_2372)">
<path fill-rule="evenodd" clip-rule="evenodd" d="M35.8198 9.75085C35.5795 7.58845 35.099 5.84651 34.0178 4.36487C33.3571 3.46386 32.5762 2.66297 31.6752 2.02226C30.1935 0.941061 28.4316 0.460527 26.2892 0.22026C24.1869 1.52588e-05 21.5239 1.52588e-05 18.1201 1.52588e-05H17.96C14.5562 1.52588e-05 11.9132 1.52588e-05 9.79088 0.22026C7.62848 0.460527 5.88654 0.941061 4.40489 2.02226C3.50389 2.683 2.703 3.46386 2.06229 4.36487C0.941046 5.84651 0.460512 7.58845 0.220245 9.75085C0 11.8532 0 14.5161 0 17.9199V18.0801C0 21.4839 0 24.1468 0.220245 26.2492C0.460512 28.4116 0.941046 30.1535 2.02225 31.6352C2.68298 32.5362 3.46385 33.3371 4.36485 33.9778C5.8465 35.059 7.60845 35.5395 9.75083 35.7798C11.8532 36 14.5161 36 17.9199 36H18.0801C21.4839 36 24.1268 36 26.2492 35.7798C28.4116 35.5395 30.1535 35.059 31.6352 33.9778C32.5362 33.317 33.337 32.5362 33.9778 31.6352C35.059 30.1535 35.5395 28.3916 35.7798 26.2492C36 24.1468 36 21.4839 36 18.0801V17.9199C36 14.5161 36 11.8732 35.7798 9.75085H35.8198ZM26.8899 19.3215H20.4828L24.8676 23.7064C25.3882 24.2269 25.3882 25.0679 24.8676 25.5884C24.3471 26.109 23.5061 26.109 22.9855 25.5884L19.3615 21.9644V26.8498C19.3615 27.5907 18.7608 28.1713 18.04 28.1713C17.3192 28.1713 16.7186 27.5706 16.7186 26.8498V21.2036L12.3337 25.5884C11.8131 26.109 10.9722 26.109 10.4516 25.5884C9.93103 25.0679 9.93103 24.2269 10.4516 23.7064L14.8365 19.3215H9.19021C8.44939 19.3215 7.86874 18.7208 7.86874 18C7.86874 17.2792 8.46941 16.6785 9.19021 16.6785H14.0756L10.4516 13.0545C9.93103 12.5339 9.93103 11.693 10.4516 11.1724C10.9722 10.6519 11.8131 10.6519 12.3337 11.1724L16.7186 15.5573V9.15018C16.7186 8.40936 17.3192 7.82871 18.04 7.82871C18.7608 7.82871 19.3615 8.42938 19.3615 9.15018V14.7965L22.9855 11.1724C23.5061 10.6519 24.3471 10.6519 24.8676 11.1724C25.3882 11.693 25.3882 12.5339 24.8676 13.0545L21.2436 16.6785H26.8899C27.6307 16.6785 28.2113 17.2792 28.2113 18C28.2113 18.7208 27.6107 19.3215 26.8899 19.3215Z" fill="black"/>
</g>
<defs>
<clipPath id="clip0_506_2372">
<rect width="36" height="36" fill="white"/>
</clipPath>
</defs>
</svg>
